
<svg width="612px" height="592px" viewBox="0 0 612 592" version="1.1" xmlns="http://www.w3.org/2000/svg" xmlns:xlink="http://www.w3.org/1999/xlink">
    <!-- Generator: Sketch 47.1 (45422) - http://www.bohemiancoding.com/sketch -->
    <desc>Created with Sketch.</desc>
    <defs></defs>
    <g id="Page-1" stroke="none" stroke-width="1" fill="none" fill-rule="evenodd">
        <path d="M265.048905,12.9730352 C164.727008,12.9730352 83.4065821,110.066546 83.4065821,229.830149 C83.4065821,349.597717 164.727008,446.691228 265.048905,446.691228 C365.36287,446.691228 446.683296,349.597717 446.683296,229.830149 C446.683296,110.066546 365.36287,12.9730352 265.048905,12.9730352 Z M300.493728,457.752615 C315.445835,460.144159 331.44102,464.110235 348.451521,470.039519 C348.451521,470.039519 575.192096,574.755828 611.334949,547.730985 C611.334949,547.730985 557.896038,612.147994 465.839444,585.571318 C465.839444,585.571318 408.688286,569.814097 290.991009,513.289579 C290.991009,513.289579 214.378316,464.60996 145.190117,497.837747 C145.190117,497.837747 174.360607,467.132385 230.563873,457.597938 L228.184227,457.455159 C99.2550225,441.912106 0,345.921165 0,229.830149 C0,102.89588 118.664999,0 265.048905,0 C411.428845,0 530.085912,102.89588 530.085912,229.830149 C530.085912,346.452619 429.918692,442.792575 300.109019,457.665361 L300.493728,457.752615 L300.493728,457.752615 Z" id="Fill-72" fill="#EEF3F2"></path>
    </g>
</svg>